<?xml version="1.0" encoding="UTF-8"?>
<!-- Generated by Pixelmator Pro 3.6.18 -->
<svg width="512" height="512" viewBox="0 0 512 512" xmlns="http://www.w3.org/2000/svg">
    <g id="Group">
        <g id="Group-copy">
            <path id="Path" fill="none" stroke="#ffffff" stroke-width="26.500032" stroke-linecap="round" stroke-linejoin="round" d="M 175.999741 389.500366 C 175.999741 404.135468 164.134811 416.000397 149.49971 416.000397 C 134.864624 416.000397 122.99968 404.135468 122.99968 389.500366 C 122.99968 374.865295 134.864624 363.000336 149.49971 363.000336 C 164.134811 363.000336 175.999741 374.865295 175.999741 389.500366 Z"/>
            <path id="path1" fill="none" stroke="#ffffff" stroke-width="26.500032" stroke-linecap="round" stroke-linejoin="round" d="M 388 389.500366 C 388 404.135468 376.135071 416.000397 361.499969 416.000397 C 346.864899 416.000397 334.999939 404.135468 334.999939 389.500366 C 334.999939 374.865295 346.864899 363.000336 361.499969 363.000336 C 376.135071 363.000336 388 374.865295 388 389.500366 Z"/>
            <path id="path2" fill="none" stroke="#ffffff" stroke-width="26.500032" stroke-linecap="round" stroke-linejoin="round" d="M 175.999741 389.500366 L 228.999817 389.500366 L 228.999817 299.10083"/>
            <path id="path3" fill="none" stroke="#ffffff" stroke-width="26.500032" stroke-linecap="round" stroke-linejoin="round" d="M 281.999878 299.10083 L 281.999878 389.500366 L 334.999939 389.500366"/>
            <path id="path4" fill="none" stroke="#ffffff" stroke-width="26.500032" stroke-linecap="round" stroke-linejoin="round" d="M 255.499847 310.000275 C 200.600616 294.31488 162.749725 244.135315 162.749725 187.038361 L 162.749725 122.733398 L 255.499847 96.233368 L 348.249969 122.733398 L 348.249969 187.038361 C 348.249969 244.135315 310.399078 294.31488 255.499847 310.000275 Z"/>
            <path id="path5" fill="none" stroke="#64b5f6" stroke-width="26.500032" stroke-linecap="round" stroke-linejoin="round" d="M 215.749802 204.000153 L 242.249832 230.500183 L 295.249908 177.500122"/>
        </g>
        <path id="right" fill="#64b5f6" fill-rule="evenodd" stroke="none" d="M 499.958344 235.666656 L 509.958344 235.333344 L 509.958344 236 L 510.958344 236 L 510.625 256 L 510.958344 276 L 509.958344 276 L 509.958344 276.666687 L 499.958344 276.333313 C 488.291656 276.666687 475.291656 278.666687 465.625 285.666687 C 458.958344 290.333313 454.625 296.333313 451.625 303.666687 C 447.958344 312.666687 453.291656 345 454.625 355 C 461.291656 401.333344 471.958344 468 422.291656 497 C 413.625 502 403.958344 505.333344 393.958344 507.666656 C 382.625 510.333344 370.625 511.333344 358.958344 511.666656 L 348.291656 512 L 346.958344 471.333344 L 357.625 471 C 366.625 470.666656 375.625 470 384.291656 468 C 389.625 466.666656 395.291656 465 399.958344 462.333344 C 402.291656 461 404.625 459.333344 406.291656 457.333344 C 424.625 437.333344 415.625 386 411.958344 360.666687 C 408.958344 340 403.291656 308.333313 411.625 288.666687 C 416.958344 276 424.625 265 435.291656 256.333313 C 424.625 247.666656 416.958344 236.666656 411.625 224 C 403.291656 204.333344 408.958344 172.666656 411.958344 152 C 412.958344 144 414.291656 136 415.291656 128 C 417.958344 106.666656 422.625 63.666656 399.958344 50 C 395.291656 47.333344 389.625 45.333344 384.291656 44.333344 C 375.625 42.333344 366.291656 41.666656 357.625 41.333344 L 346.958344 41 L 348.291656 0.333344 L 358.958344 0.666656 C 370.625 1 382.625 2 393.958344 4.666656 C 403.958344 7 413.625 10.333344 422.291656 15.333344 C 471.958344 44.333344 461.291656 111 454.625 157.333344 C 453.291656 167.333344 447.958344 199.666656 451.625 208.666656 C 454.625 215.666656 458.958344 222 465.625 226.666656 C 475.291656 233.333344 488.291656 235.666656 499.958344 236 Z"/>
        <path id="left" fill="#ffffff" fill-rule="evenodd" stroke="none" d="M 78.958336 256 C 89.625 264.666687 97.291664 275.666687 102.625 288.333313 C 110.958336 308 105.291664 339.666687 102.291664 360.333313 C 101.291664 368.333313 99.958336 376.333313 98.958336 384.333344 C 96.291664 405.666656 91.625 448.666656 114.291664 462.333344 C 118.958336 465 124.625 467 129.958328 468 C 138.625 470 147.958328 470.666656 156.625 471 L 167.291672 471.333344 L 165.958328 512 L 155.291672 511.666656 C 143.625 511.333344 131.625 510.333344 120.291664 507.666656 C 110.291664 505.333344 100.625 502 91.958336 497 C 42.291668 468 52.958332 401.333344 59.625 355 C 60.958332 345 66.291664 312.666687 62.625 303.666687 C 59.625 296.666687 55.291668 290.333313 48.625 285.666687 C 38.958332 279 25.958334 276.666687 14.291667 276.333313 L 4.291667 276.666687 L 4.291667 276 L 3.291667 276 L 3.625 256 L 3.291667 236 L 4.291667 236 L 4.291667 235.333344 L 14.291667 235.666656 C 25.958334 235.333344 38.958332 233.333344 48.625 226.333344 C 55.291668 221.666656 59.625 215.666656 62.625 208.333344 C 66.291664 199.333344 60.958332 167 59.625 157 C 52.958332 110.666656 42.291668 44 91.958336 15 C 100.625 10 110.291664 6.666656 120.291664 4.333344 C 131.625 1.666656 143.625 0.666656 155.291672 0.333344 L 165.958328 0 L 167.291672 40.666656 L 156.625 41 C 147.625 41.333344 138.625 42 129.958328 44 C 124.625 45.333344 118.958336 47 114.291664 49.666656 C 111.958336 51 109.625 52.666656 107.958336 54.666656 C 89.625 74.666656 98.625 126 102.291664 151.333344 C 105.291664 172 110.958336 203.666656 102.625 223.333344 C 97.291664 236 89.625 247 78.958336 255.666656 Z"/>
    </g>
</svg>
